<svg version="1.0" xmlns="http://www.w3.org/2000/svg" width="682.667" height="682.667" viewBox="0 0 512 512"><path d="M199.6 25.5c-29.1 5.5-54.9 27.1-65.7 54.9-5.3 13.7-5.9 20.5-5.9 68.2V192h-24.3c-27.2 0-31.5.7-38.9 6.3-5 3.8-10.4 11.3-11.8 16.5-1.2 4.6-23.5 155.2-25.5 172.1-2.2 19.1-3.8 48.2-3.3 60.2.4 10 .7 11.4 4.1 18.2 4.4 9 10.3 14.7 19.5 19l6.7 3.2h404l5.8-2.7c8-3.8 16-11.7 20-19.7l3.2-6.6-.1-24.5c-.1-30.2-1-38.8-11.9-112.5-13.9-93.9-15.4-103.8-17.1-108.7-2-6.1-9.3-14.2-15.8-17.6l-5.1-2.7-26.7-.3-26.8-.3v-43.3c0-47.9-.6-54.4-6.1-68.6-3.9-10.3-11.5-21.8-19.8-30.1-24.8-24.8-61.4-32.4-94.4-19.7l-7.9 3-5.1-2.1c-14.9-6.3-35.6-8.5-51.1-5.6zm24.2 31.1l3 .6-4.8 7.4c-2.7 4.1-6.2 11-7.9 15.2-5.6 14.7-6.1 20-6.1 68.3V192h-48v-42.3c0-25.7.4-44.7 1.1-48.3 2.9-16.3 14.9-32 30.2-39.3 10.9-5.3 23.1-7.4 32.5-5.5zm82.8.5c9.5 1.7 21 7.8 28.2 14.9 7 7 10.3 12.1 14.1 21.9l2.6 6.6.3 45.7.3 45.8h-48l-.3-47.3c-.4-44.7-.5-47.6-2.6-54.7-2.8-9.9-6.4-17.8-11.7-26.1-4.2-6.5-4.3-6.8-2.2-7.2 4.4-.9 13.5-.7 19.3.4zm-46.3 20.8c4.8 6.3 9.2 16.1 10.6 23.6.7 3.6 1.1 21.9 1.1 48.2V192h-32v-42.3c0-45.7.4-50.2 5.1-60.6 2.7-6 9.6-16.1 10.9-16.1.3 0 2.3 2.2 4.3 4.9z"/></svg>